# xmcd
# Track frame offsets:
# 150
# 13953
# 30524
# 44671
# 60050
# 73536
# 95424
# 110684
# 124572
# 144076
# 167755
# 180600
# 193515
# 208425
# 221844
# 236488
# 254283
#
# Disc length: 3570 seconds
# Revision: 0
# Processed by: cddbd v1.4PL0 Copyright (c) Steve Scherf et al.
# Submitted via: VisiTrax 2.9.5.181 - For more info visit www.synapsa.com
#
DISCID=f30df011
DTITLE=David Allan Coe - 17 Greatest Hits
DYEAR=1900
DGENRE=
TTITLE0=She Used To Love Me A Lot
TTITLE1=Mona Lisa Lost Her Smile
TTITLE2=The Ride
TTITLE3=Now I Lay Me Down To Cheat
TTITLE4=Tennessee Whiskey
TTITLE5=If That Ain't Country
TTITLE6=Longhaired Redneck
TTITLE7=Jody Like  A Melody
TTITLE8=Please Come To Boston
TTITLE9=You Never Even Called Me By My Name
TTITLE10=This Bottle (In My Hand)
TTITLE11=Would You Lay With Me
TTITLE12=Jack Daniel's, If You Please
TTITLE13=Take This Job And Shove It
TTITLE14=Willie, Waylon, And Me
TTITLE15=Pledging My Love
TTITLE16=Hank Wiliams Junior-Junior
EXTD=
EXTT0=
EXTT1=
EXTT2=
EXTT3=
EXTT4=
EXTT5=
EXTT6=
EXTT7=
EXTT8=
EXTT9=
EXTT10=
EXTT11=
EXTT12=
EXTT13=
EXTT14=
EXTT15=
EXTT16=
PLAYORDER=
